<svg width="1416" height="890" viewBox="0 0 1416 890" fill="none" xmlns="http://www.w3.org/2000/svg">
<g filter="url(#filter0_f_55_2)">
<path d="M590.241 613.282L706.13 680.238V814.15L590.241 881.106L474.352 814.15V680.238L590.241 613.282Z" fill="#5386FF" fill-opacity="0.15"/>
<path d="M241.648 412.414L357.537 479.37V613.282L241.648 680.238L125.759 613.282V479.37L241.648 412.414Z" fill="#5386FF" fill-opacity="0.15"/>
<path d="M707.331 411.075L823.22 478.031V611.943L707.331 678.899L591.442 611.943V478.031L707.331 411.075Z" fill="#5386FF" fill-opacity="0.15"/>
<path d="M1292.11 208.198L1408 275.154V409.066L1292.11 476.022L1176.22 409.066V275.154L1292.11 208.198Z" fill="#5386FF" fill-opacity="0.15"/>
<path d="M707.331 275.824L591.442 208.868V74.9559L707.331 8L823.22 74.956V208.868L707.331 275.824Z" fill="#5386FF" fill-opacity="0.15"/>
<path d="M473.151 8.00001L589.04 74.956V208.868L473.151 275.824L357.262 208.868V74.956L473.151 8.00001Z" fill="#5386FF" fill-opacity="0.15"/>
<path d="M941.511 678.899L825.622 611.943V478.031L941.511 411.075L1057.4 478.031V611.943L941.511 678.899Z" fill="#5386FF" fill-opacity="0.15"/>
<path d="M239.641 8.00001L355.529 74.956V208.868L239.641 275.824L123.752 208.868V74.956L239.641 8.00001Z" fill="#5386FF" fill-opacity="0.15"/>
<path d="M590.241 210.877L706.13 277.833V411.744L590.241 478.7L474.352 411.744V277.833L590.241 210.877Z" fill="#5386FF" fill-opacity="0.15"/>
<path d="M1175.02 8.00001L1290.91 74.956V208.868L1175.02 275.824L1059.13 208.868V74.956L1175.02 8.00001Z" fill="#5386FF" fill-opacity="0.15"/>
<path d="M824.421 476.022L708.532 409.066V275.154L824.421 208.198L940.31 275.154V409.066L824.421 476.022Z" fill="#5386FF" fill-opacity="0.15"/>
<path d="M473.151 411.075L589.04 478.031V611.943L473.151 678.899L357.262 611.943V478.031L473.151 411.075Z" fill="#5386FF" fill-opacity="0.15"/>
<path d="M1057.93 208.198L1173.82 275.154V409.066L1057.93 476.022L942.043 409.066V275.154L1057.93 208.198Z" fill="#5386FF" fill-opacity="0.15"/>
<path d="M123.889 210.877L239.778 277.833V411.744L123.889 478.7L8 411.744V277.833L123.889 210.877Z" fill="#5386FF" fill-opacity="0.15"/>
</g>
<defs>
<filter id="filter0_f_55_2" x="0" y="0" width="1416" height="889.106" filterUnits="userSpaceOnUse" color-interpolation-filters="sRGB">
<feFlood flood-opacity="0" result="BackgroundImageFix"/>
<feBlend mode="normal" in="SourceGraphic" in2="BackgroundImageFix" result="shape"/>
<feGaussianBlur stdDeviation="4" result="effect1_foregroundBlur_55_2"/>
</filter>
</defs>
</svg>
